{
  "accessors": [
    {
      "bufferView": 2,
      "componentType": 5126,
      "count": 7064,
      "max": [
        0.5217750072479248,
        0.8151919841766357,
        1.3357499837875366
      ],
      "min": [
        -0.5217750072479248,
        0.10497300326824188,
        -1.3198000192642212
      ],
      "type": "VEC3"
    },
    {
      "bufferView": 2,
      "byteOffset": 84768,
      "componentType": 5126,
      "count": 7064,
      "max": [
        1.0,
        0.9999986886978149,
        1.0
      ],
      "min": [
        -1.0,
        -0.9998976588249207,
        -1.0
      ],
      "type": "VEC3"
    },
    {
      "bufferView": 1,
      "componentType": 5126,
      "count": 7064,
      "max": [
        0.33323898911476135,
        135.84800720214844
      ],
      "min": [
        -257.2550048828125,
        -0.0015099099837243557
      ],
      "type": "VEC2"
    },
    {
      "bufferView": 0,
      "componentType": 5125,
      "count": 7065,
      "type": "SCALAR"
    },
    {
      "bufferView": 2,
      "byteOffset": 169536,
      "componentType": 5126,
      "count": 2010,
      "max": [
        0.47922301292419434,
        0.6608759760856628,
        1.2738699913024902
      ],
      "min": [
        -0.47922199964523315,
        0.34537601470947266,
        -1.3051999807357788
      ],
      "type": "VEC3"
    },
    {
      "bufferView": 2,
      "byteOffset": 193656,
      "componentType": 5126,
      "count": 2010,
      "max": [
        0.9980043768882751,
        0.9947353601455688,
        1.0
      ],
      "min": [
        -0.9980043172836304,
        -0.9788305163383484,
        -0.9977287650108337
      ],
      "type": "VEC3"
    },
    {
      "bufferView": 1,
      "byteOffset": 56512,
      "componentType": 5126,
      "count": 2010,
      "max": [
        0.9945619702339172,
        0.9896519780158997
      ],
      "min": [
        -9.412429809570313,
        -593.4530029296875
      ],
      "type": "VEC2"
    },
    {
      "bufferView": 0,
      "byteOffset": 28260,
      "componentType": 5125,
      "count": 2010,
      "type": "SCALAR"
    },
    {
      "bufferView": 2,
      "byteOffset": 217776,
      "componentType": 5126,
      "count": 3000,
      "max": [
        0.5735430121421814,
        0.7968260049819946,
        1.3457800149917603
      ],
      "min": [
        -0.5735430121421814,
        0.1451220065355301,
        -1.3266600370407104
      ],
      "type": "VEC3"
    },
    {
      "bufferView": 2,
      "byteOffset": 253776,
      "componentType": 5126,
      "count": 3000,
      "max": [
        0.9972944855690002,
        0.999999463558197,
        0.9999319911003113
      ],
      "min": [
        -0.9972953200340271,
        -0.9619162678718567,
        -0.9988337159156799
      ],
      "type": "VEC3"
    },
    {
      "bufferView": 1,
      "byteOffset": 72592,
      "componentType": 5126,
      "count": 3000,
      "max": [
        179.39199829101563,
        173.79600524902344
      ],
      "min": [
        -191.83700561523438,
        -181.3159942626953
      ],
      "type": "VEC2"
    },
    {
      "bufferView": 0,
      "byteOffset": 36300,
      "componentType": 5125,
      "count": 3000,
      "type": "SCALAR"
    },
    {
      "bufferView": 2,
      "byteOffset": 289776,
      "componentType": 5126,
      "count": 2382,
      "max": [
        0.48346200585365295,
        0.8244839906692505,
        1.3597700595855713
      ],
      "min": [
        -0.48346200585365295,
        0.15164600312709808,
        -0.7419639825820923
      ],
      "type": "VEC3"
    },
    {
      "bufferView": 2,
      "byteOffset": 318360,
      "componentType": 5126,
      "count": 2382,
      "max": [
        0.9974068403244019,
        0.9998580813407898,
        1.0
      ],
      "min": [
        -0.998498260974884,
        -0.9983813762664795,
        -0.9923498630523682
      ],
      "type": "VEC3"
    },
    {
      "bufferView": 1,
      "byteOffset": 96592,
      "componentType": 5126,
      "count": 2382,
      "max": [
        0.021489299833774567,
        0.020298700779676437
      ],
      "min": [
        0.007734269835054874,
        -0.0010489600244909525
      ],
      "type": "VEC2"
    },
    {
      "bufferView": 0,
      "byteOffset": 48300,
      "componentType": 5125,
      "count": 2382,
      "type": "SCALAR"
    },
    {
      "bufferView": 2,
      "byteOffset": 346944,
      "componentType": 5126,
      "count": 14802,
      "max": [
        0.5806300044059753,
        0.835657000541687,
        1.3657300472259521
      ],
      "min": [
        -0.5806300044059753,
        0.10747700184583664,
        -1.3657300472259521
      ],
      "type": "VEC3"
    },
    {
      "bufferView": 2,
      "byteOffset": 524568,
      "componentType": 5126,
      "count": 14802,
      "max": [
        0.9999988079071045,
        1.0,
        0.9999793767929077
      ],
      "min": [
        -0.9999988079071045,
        -0.9999999403953552,
        -0.9995339512825012
      ],
      "type": "VEC3"
    },
    {
      "bufferView": 1,
      "byteOffset": 115648,
      "componentType": 5126,
      "count": 14802,
      "max": [
        195.83700561523438,
        200.2169952392578
      ],
      "min": [
        -205.81900024414063,
        -202.58200073242188
      ],
      "type": "VEC2"
    },
    {
      "bufferView": 0,
      "byteOffset": 57828,
      "componentType": 5125,
      "count": 14802,
      "type": "SCALAR"
    },
    {
      "bufferView": 2,
      "byteOffset": 702192,
      "componentType": 5126,
      "count": 7833,
      "max": [
        0.479746013879776,
        0.4103449881076813,
        1.23117995262146
      ],
      "min": [
        -0.479746013879776,
        0.06287910044193268,
        -1.2030600309371948
      ],
      "type": "VEC3"
    },
    {
      "bufferView": 2,
      "byteOffset": 796188,
      "componentType": 5126,
      "count": 7833,
      "max": [
        1.0,
        1.0,
        1.0
      ],
      "min": [
        -1.0,
        -0.9999997615814209,
        -1.0
      ],
      "type": "VEC3"
    },
    {
      "bufferView": 1,
      "byteOffset": 234064,
      "componentType": 5126,
      "count": 7833,
      "max": [
        656.6669921875,
        506.4630126953125
      ],
      "min": [
        -655.3389892578125,
        -528.2369995117188
      ],
      "type": "VEC2"
    },
    {
      "bufferView": 0,
      "byteOffset": 117036,
      "componentType": 5125,
      "count": 7833,
      "type": "SCALAR"
    },
    {
      "bufferView": 2,
      "byteOffset": 890184,
      "componentType": 5126,
      "count": 3600,
      "max": [
        0.5231209993362427,
        0.3748140037059784,
        1.008739948272705
      ],
      "min": [
        -0.5231209993362427,
        7.276170247405274e-16,
        -0.9455040097236633
      ],
      "type": "VEC3"
    },
    {
      "bufferView": 2,
      "byteOffset": 933384,
      "componentType": 5126,
      "count": 3600,
      "max": [
        0.9980111122131348,
        0.9271215200424194,
        0.9513408541679382
      ],
      "min": [
        -0.9980111122131348,
        -0.9271215200424194,
        -0.9513406157493591
      ],
      "type": "VEC3"
    },
    {
      "bufferView": 1,
      "byteOffset": 296728,
      "componentType": 5126,
      "count": 3600,
      "max": [
        32.035499572753906,
        2.0511999130249023
      ],
      "min": [
        -0.054526399821043015,
        1.047160029411316
      ],
      "type": "VEC2"
    },
    {
      "bufferView": 0,
      "byteOffset": 148368,
      "componentType": 5125,
      "count": 3600,
      "type": "SCALAR"
    },
    {
      "bufferView": 2,
      "byteOffset": 976584,
      "componentType": 5126,
      "count": 10416,
      "max": [
        0.5316429734230042,
        0.3109869956970215,
        0.9452919960021973
      ],
      "min": [
        -0.5316429734230042,
        0.0638296976685524,
        -0.8820570111274719
      ],
      "type": "VEC3"
    },
    {
      "bufferView": 2,
      "byteOffset": 1101576,
      "componentType": 5126,
      "count": 10416,
      "max": [
        1.0,
        0.9999631643295288,
        1.0
      ],
      "min": [
        -1.0,
        -1.0,
        -1.0
      ],
      "type": "VEC3"
    },
    {
      "bufferView": 1,
      "byteOffset": 325528,
      "componentType": 5126,
      "count": 10416,
      "max": [
        1.0183900594711304,
        0.951200008392334
      ],
      "min": [
        0.009552840143442154,
        0.00794881023466587
      ],
      "type": "VEC2"
    },
    {
      "bufferView": 0,
      "byteOffset": 162768,
      "componentType": 5125,
      "count": 10416,
      "type": "SCALAR"
    },
    {
      "bufferView": 2,
      "byteOffset": 1226568,
      "componentType": 5126,
      "count": 882,
      "max": [
        0.4622890055179596,
        0.5489709973335266,
        -1.0811699628829956
      ],
      "min": [
        -0.4622890055179596,
        0.4345589876174927,
        -1.3127399682998657
      ],
      "type": "VEC3"
    },
    {
      "bufferView": 2,
      "byteOffset": 1237152,
      "componentType": 5126,
      "count": 882,
      "max": [
        0.9935762882232666,
        0.9582329392433167,
        0.7713085412979126
      ],
      "min": [
        -0.99357670545578,
        -0.9463364481925964,
        -0.9983507394790649
      ],
      "type": "VEC3"
    },
    {
      "bufferView": 1,
      "byteOffset": 408856,
      "componentType": 5126,
      "count": 882,
      "max": [
        0.8590289950370789,
        0.22325499355793
      ],
      "min": [
        0.023435000330209732,
        0.02498519979417324
      ],
      "type": "VEC2"
    },
    {
      "bufferView": 0,
      "byteOffset": 204432,
      "componentType": 5125,
      "count": 882,
      "type": "SCALAR"
    },
    {
      "bufferView": 2,
      "byteOffset": 1247736,
      "componentType": 5126,
      "count": 1476,
      "max": [
        0.48346200585365295,
        0.8038290143013,
        1.2777299880981445
      ],
      "min": [
        -0.48346200585365295,
        0.3410469889640808,
        -1.3035600185394287
      ],
      "type": "VEC3"
    },
    {
      "bufferView": 2,
      "byteOffset": 1265448,
      "componentType": 5126,
      "count": 1476,
      "max": [
        0.9981580376625061,
        0.9587699174880981,
        0.853220522403717
      ],
      "min": [
        -0.9981579780578613,
        -0.1922886073589325,
        -0.9628810286521912
      ],
      "type": "VEC3"
    },
    {
      "bufferView": 1,
      "byteOffset": 415912,
      "componentType": 5126,
      "count": 1476,
      "max": [
        -4.124639987945557,
        -7.51278018951416
      ],
      "min": [
        -4.904160022735596,
        -8.03030014038086
      ],
      "type": "VEC2"
    },
    {
      "bufferView": 0,
      "byteOffset": 207960,
      "componentType": 5125,
      "count": 1476,
      "type": "SCALAR"
    },
    {
      "bufferView": 2,
      "byteOffset": 1283160,
      "componentType": 5126,
      "count": 1610,
      "max": [
        0.4870760142803192,
        0.27538201212882996,
        0.9117670059204102
      ],
      "min": [
        -0.4870760142803192,
        0.09943140298128128,
        -0.864791989326477
      ],
      "type": "VEC3"
    },
    {
      "bufferView": 2,
      "byteOffset": 1302480,
      "componentType": 5126,
      "count": 1610,
      "max": [
        1.0,
        0.9981588125228882,
        0.9997626543045044
      ],
      "min": [
        -1.0,
        -0.9981578588485718,
        -0.9736630916595459
      ],
      "type": "VEC3"
    },
    {
      "bufferView": 1,
      "byteOffset": 427720,
      "componentType": 5126,
      "count": 1610,
      "max": [
        99.85980224609375,
        20.154699325561523
      ],
      "min": [
        -99.85780334472656,
        -23.341299057006836
      ],
      "type": "VEC2"
    },
    {
      "bufferView": 0,
      "byteOffset": 213864,
      "componentType": 5125,
      "count": 1764,
      "type": "SCALAR"
    }
  ],
  "asset": {
    "extras": {
      "author": "mamont nikita (https://sketchfab.com/mamontnikita62)",
      "license": "CC-BY-4.0 (http://creativecommons.org/licenses/by/4.0/)",
      "source": "https://sketchfab.com/3d-models/toyota-camry-40-560c174d073f4a10bb153ded41ada8c9",
      "title": "Toyota Camry 40"
    },
    "generator": "Sketchfab-15.31.0",
    "version": "2.0"
  },
  "bufferViews": [
    {
      "buffer": 0,
      "byteLength": 220920,
      "name": "floatBufferViews",
      "target": 34963
    },
    {
      "buffer": 0,
      "byteLength": 440600,
      "byteOffset": 220920,
      "byteStride": 8,
      "name": "floatBufferViews",
      "target": 34962
    },
    {
      "buffer": 0,
      "byteLength": 1321800,
      "byteOffset": 661520,
      "byteStride": 12,
      "name": "floatBufferViews",
      "target": 34962
    }
  ],
  "buffers": [
    {
      "byteLength": 1983320,
      "uri": "scene.bin"
    }
  ],
  "extensionsUsed": [
    "KHR_materials_specular",
    "KHR_materials_clearcoat"
  ],
  "materials": [
    {
      "doubleSided": true,
      "extensions": {
        "KHR_materials_specular": {
          "specularColorFactor": [
            1.0,
            1.0,
            1.0
          ],
          "specularFactor": 1.0
        }
      },
      "name": "CAMRY_int",
      "pbrMetallicRoughness": {
        "baseColorFactor": [
          0.0,
          0.0,
          0.0,
          1.0
        ],
        "metallicFactor": 0.0,
        "roughnessFactor": 0.0
      }
    },
    {
      "doubleSided": true,
      "name": "CAMRY_luz",
      "pbrMetallicRoughness": {
        "baseColorFactor": [
          0.512241594656483,
          0.512241594656483,
          0.512241594656483,
          1.0
        ],
        "metallicFactor": 0.9249551998634662,
        "roughnessFactor": 0.0
      }
    },
    {
      "doubleSided": true,
      "extensions": {
        "KHR_materials_specular": {
          "specularColorFactor": [
            1.0,
            1.0,
            1.0
          ],
          "specularFactor": 1.0
        }
      },
      "name": "cromo",
      "pbrMetallicRoughness": {
        "baseColorFactor": [
          0.0,
          0.0,
          0.0,
          1.0
        ],
        "metallicFactor": 0.0,
        "roughnessFactor": 0.28228352695932035
      }
    },
    {
      "doubleSided": true,
      "extensions": {
        "KHR_materials_clearcoat": {
          "clearcoatFactor": 1.0,
          "clearcoatRoughnessFactor": 0.04
        }
      },
      "name": "CAMRY_plast",
      "pbrMetallicRoughness": {
        "baseColorFactor": [
          0.0,
          0.0,
          0.0,
          1.0
        ],
        "metallicFactor": 0.0,
        "roughnessFactor": 0.0
      }
    },
    {
      "doubleSided": true,
      "name": "CAMRY",
      "pbrMetallicRoughness": {
        "baseColorFactor": [
          0.17677654510697954,
          0.17677654510697954,
          0.17677654510697954,
          1.0
        ],
        "metallicFactor": 0.0,
        "roughnessFactor": 0.0
      }
    },
    {
      "doubleSided": true,
      "name": "bajo",
      "pbrMetallicRoughness": {
        "baseColorFactor": [
          0.0,
          0.0,
          0.0,
          1.0
        ],
        "metallicFactor": 0.0,
        "roughnessFactor": 0.0
      }
    },
    {
      "doubleSided": true,
      "name": "Mold-Tech-8017",
      "pbrMetallicRoughness": {
        "baseColorFactor": [
          0.00537118,
          0.00537118,
          0.00537118,
          1.0
        ],
        "metallicFactor": 0.0,
        "roughnessFactor": 0.4
      }
    },
    {
      "doubleSided": true,
      "name": "CAMRY_rin",
      "pbrMetallicRoughness": {
        "baseColorFactor": [
          0.5904156236851367,
          0.5904156236851367,
          0.5904156236851367,
          1.0
        ],
        "metallicFactor": 0.7055259596981628,
        "roughnessFactor": 0.16037839353415173
      }
    },
    {
      "doubleSided": true,
      "extensions": {
        "KHR_materials_specular": {
          "specularColorFactor": [
            1.0,
            1.0,
            1.0
          ],
          "specularFactor": 1.0
        }
      },
      "name": "CAMRY_luz2",
      "pbrMetallicRoughness": {
        "baseColorFactor": [
          0.14107431122548625,
          0.0,
          0.0,
          1.0
        ],
        "metallicFactor": 0.0,
        "roughnessFactor": 0.0
      }
    },
    {
      "alphaMode": "BLEND",
      "doubleSided": true,
      "extensions": {
        "KHR_materials_specular": {
          "specularColorFactor": [
            1.0,
            1.0,
            1.0
          ],
          "specularFactor": 0.0
        }
      },
      "name": "vidrios",
      "pbrMetallicRoughness": {
        "baseColorFactor": [
          0.10209554924357864,
          0.10209554924357864,
          0.10209554924357864,
          0.7603832697394887
        ],
        "metallicFactor": 0.0,
        "roughnessFactor": 0.9153679072747996
      }
    },
    {
      "doubleSided": true,
      "name": "disk",
      "pbrMetallicRoughness": {
        "metallicFactor": 0.0,
        "roughnessFactor": 0.8239417257461427
      }
    }
  ],
  "meshes": [
    {
      "name": "Toyota Camry 3D model_CAMRY_int_0",
      "primitives": [
        {
          "attributes": {
            "NORMAL": 1,
            "POSITION": 0,
            "TEXCOORD_0": 2
          },
          "indices": 3,
          "material": 0,
          "mode": 4
        }
      ]
    },
    {
      "name": "Toyota Camry 3D model_CAMRY_luz_0",
      "primitives": [
        {
          "attributes": {
            "NORMAL": 5,
            "POSITION": 4,
            "TEXCOORD_0": 6
          },
          "indices": 7,
          "material": 1,
          "mode": 4
        }
      ]
    },
    {
      "name": "Toyota Camry 3D model_cromo_0",
      "primitives": [
        {
          "attributes": {
            "NORMAL": 9,
            "POSITION": 8,
            "TEXCOORD_0": 10
          },
          "indices": 11,
          "material": 2,
          "mode": 4
        }
      ]
    },
    {
      "name": "Toyota Camry 3D model_CAMRY_plast_0",
      "primitives": [
        {
          "attributes": {
            "NORMAL": 13,
            "POSITION": 12,
            "TEXCOORD_0": 14
          },
          "indices": 15,
          "material": 3,
          "mode": 4
        }
      ]
    },
    {
      "name": "Toyota Camry 3D model_CAMRY_0",
      "primitives": [
        {
          "attributes": {
            "NORMAL": 17,
            "POSITION": 16,
            "TEXCOORD_0": 18
          },
          "indices": 19,
          "material": 4,
          "mode": 4
        }
      ]
    },
    {
      "name": "Toyota Camry 3D model_bajo_0",
      "primitives": [
        {
          "attributes": {
            "NORMAL": 21,
            "POSITION": 20,
            "TEXCOORD_0": 22
          },
          "indices": 23,
          "material": 5,
          "mode": 4
        }
      ]
    },
    {
      "name": "Toyota Camry 3D model_Mold-Tech-8017_0",
      "primitives": [
        {
          "attributes": {
            "NORMAL": 25,
            "POSITION": 24,
            "TEXCOORD_0": 26
          },
          "indices": 27,
          "material": 6,
          "mode": 4
        }
      ]
    },
    {
      "name": "Toyota Camry 3D model_CAMRY_rin_0",
      "primitives": [
        {
          "attributes": {
            "NORMAL": 29,
            "POSITION": 28,
            "TEXCOORD_0": 30
          },
          "indices": 31,
          "material": 7,
          "mode": 4
        }
      ]
    },
    {
      "name": "Toyota Camry 3D model_CAMRY_luz2_0",
      "primitives": [
        {
          "attributes": {
            "NORMAL": 33,
            "POSITION": 32,
            "TEXCOORD_0": 34
          },
          "indices": 35,
          "material": 8,
          "mode": 4
        }
      ]
    },
    {
      "name": "Toyota Camry 3D model_vidrios_0",
      "primitives": [
        {
          "attributes": {
            "NORMAL": 37,
            "POSITION": 36,
            "TEXCOORD_0": 38
          },
          "indices": 39,
          "material": 9,
          "mode": 4
        }
      ]
    },
    {
      "name": "Toyota Camry 3D model_disk_0",
      "primitives": [
        {
          "attributes": {
            "NORMAL": 41,
            "POSITION": 40,
            "TEXCOORD_0": 42
          },
          "indices": 43,
          "material": 10,
          "mode": 4
        }
      ]
    }
  ],
  "nodes": [
    {
      "children": [
        1
      ],
      "matrix": [
        1.0,
        0.0,
        0.0,
        0.0,
        0.0,
        2.220446049250313e-16,
        -1.0,
        0.0,
        0.0,
        1.0,
        2.220446049250313e-16,
        0.0,
        0.0,
        0.0,
        0.0,
        1.0
      ],
      "name": "Sketchfab_model"
    },
    {
      "children": [
        2
      ],
      "matrix": [
        0.009999999776482582,
        0.0,
        0.0,
        0.0,
        0.0,
        0.0,
        0.009999999776482582,
        0.0,
        0.0,
        -0.009999999776482582,
        0.0,
        0.0,
        0.0,
        0.0,
        0.0,
        1.0
      ],
      "name": "Toyota Camry .fbx"
    },
    {
      "children": [
        3
      ],
      "name": "RootNode"
    },
    {
      "children": [
        4,
        5,
        6,
        7,
        8,
        9,
        10,
        11,
        12,
        13,
        14
      ],
      "matrix": [
        100.0,
        0.0,
        0.0,
        0.0,
        0.0,
        99.99999999999866,
        1.6292067073209114e-05,
        0.0,
        0.0,
        -1.6292067073209114e-05,
        99.99999999999866,
        0.0,
        0.0,
        0.0,
        0.0,
        1.0
      ],
      "name": "Toyota Camry 3D model"
    },
    {
      "mesh": 0,
      "name": "Toyota Camry 3D model_CAMRY_int_0"
    },
    {
      "mesh": 1,
      "name": "Toyota Camry 3D model_CAMRY_luz_0"
    },
    {
      "mesh": 2,
      "name": "Toyota Camry 3D model_cromo_0"
    },
    {
      "mesh": 3,
      "name": "Toyota Camry 3D model_CAMRY_plast_0"
    },
    {
      "mesh": 4,
      "name": "Toyota Camry 3D model_CAMRY_0"
    },
    {
      "mesh": 5,
      "name": "Toyota Camry 3D model_bajo_0"
    },
    {
      "mesh": 6,
      "name": "Toyota Camry 3D model_Mold-Tech-8017_0"
    },
    {
      "mesh": 7,
      "name": "Toyota Camry 3D model_CAMRY_rin_0"
    },
    {
      "mesh": 8,
      "name": "Toyota Camry 3D model_CAMRY_luz2_0"
    },
    {
      "mesh": 9,
      "name": "Toyota Camry 3D model_vidrios_0"
    },
    {
      "mesh": 10,
      "name": "Toyota Camry 3D model_disk_0"
    }
  ],
  "scene": 0,
  "scenes": [
    {
      "name": "Sketchfab_Scene",
      "nodes": [
        0
      ]
    }
  ]
}
